<mxfile host="app.diagrams.net" modified="2023-02-14T10:37:00.585Z" agent="5.0 (Macintosh; Intel Mac OS X 10_15_7) AppleWebKit/537.36 (KHTML, like Gecko) Chrome/109.0.0.0 Safari/537.36" etag="WQmCtxa4nwbsaRLfZcYA" version="20.8.13" type="github">
  <diagram name="第 1 页" id="ShCTlXmWtOHIUATSDjjd">
    <mxGraphModel dx="1434" dy="796" grid="1" gridSize="10" guides="1" tooltips="1" connect="1" arrows="1" fold="1" page="1" pageScale="1" pageWidth="827" pageHeight="1169" math="0" shadow="0">
      <root>
        <mxCell id="0" />
        <mxCell id="1" parent="0" />
        <mxCell id="GTUI87fDnce3bX6rK0m2-11" value="入金" style="rounded=0;whiteSpace=wrap;html=1;verticalAlign=top;fontStyle=1;fontSize=18;" vertex="1" parent="1">
          <mxGeometry x="40" y="30" width="760" height="550" as="geometry" />
        </mxCell>
        <mxCell id="GTUI87fDnce3bX6rK0m2-5" style="edgeStyle=orthogonalEdgeStyle;rounded=0;orthogonalLoop=1;jettySize=auto;html=1;entryX=0;entryY=0.5;entryDx=0;entryDy=0;curved=1;" edge="1" parent="1" source="GTUI87fDnce3bX6rK0m2-1" target="GTUI87fDnce3bX6rK0m2-4">
          <mxGeometry relative="1" as="geometry" />
        </mxCell>
        <mxCell id="GTUI87fDnce3bX6rK0m2-8" value="资金流" style="edgeLabel;html=1;align=center;verticalAlign=middle;resizable=0;points=[];" vertex="1" connectable="0" parent="GTUI87fDnce3bX6rK0m2-5">
          <mxGeometry x="-0.48" y="-15" relative="1" as="geometry">
            <mxPoint as="offset" />
          </mxGeometry>
        </mxCell>
        <mxCell id="GTUI87fDnce3bX6rK0m2-1" value="银行卡" style="rounded=0;whiteSpace=wrap;html=1;verticalAlign=top;" vertex="1" parent="1">
          <mxGeometry x="70" y="50" width="210" height="240" as="geometry" />
        </mxCell>
        <mxCell id="GTUI87fDnce3bX6rK0m2-6" style="edgeStyle=orthogonalEdgeStyle;curved=1;rounded=0;orthogonalLoop=1;jettySize=auto;html=1;entryX=0;entryY=0.5;entryDx=0;entryDy=0;" edge="1" parent="1" source="GTUI87fDnce3bX6rK0m2-2" target="GTUI87fDnce3bX6rK0m2-4">
          <mxGeometry relative="1" as="geometry">
            <mxPoint x="480" y="350" as="targetPoint" />
          </mxGeometry>
        </mxCell>
        <mxCell id="GTUI87fDnce3bX6rK0m2-9" value="资金流" style="edgeLabel;html=1;align=center;verticalAlign=middle;resizable=0;points=[];" vertex="1" connectable="0" parent="GTUI87fDnce3bX6rK0m2-6">
          <mxGeometry x="-0.51" y="3" relative="1" as="geometry">
            <mxPoint x="-11" y="-27" as="offset" />
          </mxGeometry>
        </mxCell>
        <mxCell id="GTUI87fDnce3bX6rK0m2-2" value="Opay" style="rounded=0;whiteSpace=wrap;html=1;" vertex="1" parent="1">
          <mxGeometry x="70" y="340" width="210" height="60" as="geometry" />
        </mxCell>
        <mxCell id="GTUI87fDnce3bX6rK0m2-7" style="rounded=0;orthogonalLoop=1;jettySize=auto;html=1;entryX=0;entryY=0.5;entryDx=0;entryDy=0;edgeStyle=orthogonalEdgeStyle;curved=1;" edge="1" parent="1" source="GTUI87fDnce3bX6rK0m2-3" target="GTUI87fDnce3bX6rK0m2-4">
          <mxGeometry relative="1" as="geometry">
            <mxPoint x="480" y="350" as="targetPoint" />
          </mxGeometry>
        </mxCell>
        <mxCell id="GTUI87fDnce3bX6rK0m2-10" value="资金流" style="edgeLabel;html=1;align=center;verticalAlign=middle;resizable=0;points=[];" vertex="1" connectable="0" parent="GTUI87fDnce3bX6rK0m2-7">
          <mxGeometry x="-0.1867" y="14" relative="1" as="geometry">
            <mxPoint as="offset" />
          </mxGeometry>
        </mxCell>
        <mxCell id="GTUI87fDnce3bX6rK0m2-3" value="MOMO" style="rounded=0;whiteSpace=wrap;html=1;" vertex="1" parent="1">
          <mxGeometry x="70" y="420" width="210" height="60" as="geometry" />
        </mxCell>
        <mxCell id="GTUI87fDnce3bX6rK0m2-4" value="Palmpay&lt;br&gt;银行备付金账户" style="rounded=0;whiteSpace=wrap;html=1;" vertex="1" parent="1">
          <mxGeometry x="490" y="340" width="120" height="60" as="geometry" />
        </mxCell>
        <mxCell id="GTUI87fDnce3bX6rK0m2-13" value="卡密支付" style="rounded=0;whiteSpace=wrap;html=1;fontSize=18;" vertex="1" parent="1">
          <mxGeometry x="115" y="80" width="120" height="60" as="geometry" />
        </mxCell>
        <mxCell id="GTUI87fDnce3bX6rK0m2-14" value="代扣" style="rounded=0;whiteSpace=wrap;html=1;fontSize=18;" vertex="1" parent="1">
          <mxGeometry x="115" y="150" width="120" height="60" as="geometry" />
        </mxCell>
        <mxCell id="GTUI87fDnce3bX6rK0m2-15" value="..." style="rounded=0;whiteSpace=wrap;html=1;fontSize=18;" vertex="1" parent="1">
          <mxGeometry x="115" y="220" width="120" height="60" as="geometry" />
        </mxCell>
        <mxCell id="GTUI87fDnce3bX6rK0m2-16" value="出金" style="rounded=0;whiteSpace=wrap;html=1;verticalAlign=top;fontStyle=1;fontSize=18;" vertex="1" parent="1">
          <mxGeometry x="40" y="630" width="760" height="440" as="geometry" />
        </mxCell>
        <mxCell id="GTUI87fDnce3bX6rK0m2-22" value="Opay" style="rounded=0;whiteSpace=wrap;html=1;" vertex="1" parent="1">
          <mxGeometry x="480" y="780" width="210" height="60" as="geometry" />
        </mxCell>
        <mxCell id="GTUI87fDnce3bX6rK0m2-25" value="MOMO" style="rounded=0;whiteSpace=wrap;html=1;" vertex="1" parent="1">
          <mxGeometry x="480" y="870" width="210" height="60" as="geometry" />
        </mxCell>
        <mxCell id="GTUI87fDnce3bX6rK0m2-31" style="edgeStyle=orthogonalEdgeStyle;curved=1;rounded=0;orthogonalLoop=1;jettySize=auto;html=1;entryX=0;entryY=0.5;entryDx=0;entryDy=0;fontSize=18;" edge="1" parent="1" source="GTUI87fDnce3bX6rK0m2-26" target="GTUI87fDnce3bX6rK0m2-30">
          <mxGeometry relative="1" as="geometry" />
        </mxCell>
        <mxCell id="GTUI87fDnce3bX6rK0m2-34" value="资金流" style="edgeLabel;html=1;align=center;verticalAlign=middle;resizable=0;points=[];fontSize=11;" vertex="1" connectable="0" parent="GTUI87fDnce3bX6rK0m2-31">
          <mxGeometry x="0.4067" y="-14" relative="1" as="geometry">
            <mxPoint as="offset" />
          </mxGeometry>
        </mxCell>
        <mxCell id="GTUI87fDnce3bX6rK0m2-32" style="edgeStyle=orthogonalEdgeStyle;curved=1;rounded=0;orthogonalLoop=1;jettySize=auto;html=1;entryX=0;entryY=0.5;entryDx=0;entryDy=0;fontSize=18;" edge="1" parent="1" source="GTUI87fDnce3bX6rK0m2-26" target="GTUI87fDnce3bX6rK0m2-22">
          <mxGeometry relative="1" as="geometry" />
        </mxCell>
        <mxCell id="GTUI87fDnce3bX6rK0m2-35" value="资金流" style="edgeLabel;html=1;align=center;verticalAlign=middle;resizable=0;points=[];fontSize=11;" vertex="1" connectable="0" parent="GTUI87fDnce3bX6rK0m2-32">
          <mxGeometry x="0.1714" y="1" relative="1" as="geometry">
            <mxPoint as="offset" />
          </mxGeometry>
        </mxCell>
        <mxCell id="GTUI87fDnce3bX6rK0m2-33" style="edgeStyle=orthogonalEdgeStyle;curved=1;rounded=0;orthogonalLoop=1;jettySize=auto;html=1;entryX=0;entryY=0.5;entryDx=0;entryDy=0;fontSize=18;" edge="1" parent="1" source="GTUI87fDnce3bX6rK0m2-26" target="GTUI87fDnce3bX6rK0m2-25">
          <mxGeometry relative="1" as="geometry" />
        </mxCell>
        <mxCell id="GTUI87fDnce3bX6rK0m2-36" value="资金流" style="edgeLabel;html=1;align=center;verticalAlign=middle;resizable=0;points=[];fontSize=11;" vertex="1" connectable="0" parent="GTUI87fDnce3bX6rK0m2-33">
          <mxGeometry x="0.0828" y="1" relative="1" as="geometry">
            <mxPoint as="offset" />
          </mxGeometry>
        </mxCell>
        <mxCell id="GTUI87fDnce3bX6rK0m2-41" style="edgeStyle=orthogonalEdgeStyle;curved=1;rounded=0;orthogonalLoop=1;jettySize=auto;html=1;entryX=0;entryY=0.5;entryDx=0;entryDy=0;fontSize=11;" edge="1" parent="1" source="GTUI87fDnce3bX6rK0m2-26" target="GTUI87fDnce3bX6rK0m2-40">
          <mxGeometry relative="1" as="geometry" />
        </mxCell>
        <mxCell id="GTUI87fDnce3bX6rK0m2-26" value="Palmpay&lt;br&gt;银行备付金账户" style="rounded=0;whiteSpace=wrap;html=1;" vertex="1" parent="1">
          <mxGeometry x="150" y="820" width="120" height="60" as="geometry" />
        </mxCell>
        <mxCell id="GTUI87fDnce3bX6rK0m2-30" value="银行卡" style="rounded=0;whiteSpace=wrap;html=1;" vertex="1" parent="1">
          <mxGeometry x="480" y="690" width="210" height="60" as="geometry" />
        </mxCell>
        <mxCell id="GTUI87fDnce3bX6rK0m2-38" style="edgeStyle=orthogonalEdgeStyle;curved=1;rounded=0;orthogonalLoop=1;jettySize=auto;html=1;entryX=0;entryY=0.5;entryDx=0;entryDy=0;fontSize=11;" edge="1" parent="1" source="GTUI87fDnce3bX6rK0m2-37" target="GTUI87fDnce3bX6rK0m2-4">
          <mxGeometry relative="1" as="geometry">
            <Array as="points">
              <mxPoint x="430" y="530" />
              <mxPoint x="430" y="370" />
            </Array>
          </mxGeometry>
        </mxCell>
        <mxCell id="GTUI87fDnce3bX6rK0m2-39" value="资金流" style="edgeLabel;html=1;align=center;verticalAlign=middle;resizable=0;points=[];fontSize=11;" vertex="1" connectable="0" parent="GTUI87fDnce3bX6rK0m2-38">
          <mxGeometry x="-0.3946" y="19" relative="1" as="geometry">
            <mxPoint as="offset" />
          </mxGeometry>
        </mxCell>
        <mxCell id="GTUI87fDnce3bX6rK0m2-37" value="..." style="rounded=0;whiteSpace=wrap;html=1;" vertex="1" parent="1">
          <mxGeometry x="70" y="500" width="210" height="60" as="geometry" />
        </mxCell>
        <mxCell id="GTUI87fDnce3bX6rK0m2-40" value="..." style="rounded=0;whiteSpace=wrap;html=1;" vertex="1" parent="1">
          <mxGeometry x="480" y="960" width="210" height="60" as="geometry" />
        </mxCell>
      </root>
    </mxGraphModel>
  </diagram>
</mxfile>
